<?xml version="1.0" encoding="UTF-8" standalone="no"?>
<svg
   xmlns:dc="http://purl.org/dc/elements/1.1/"
   xmlns:cc="http://creativecommons.org/ns#"
   xmlns:rdf="http://www.w3.org/1999/02/22-rdf-syntax-ns#"
   xmlns:svg="http://www.w3.org/2000/svg"
   xmlns="http://www.w3.org/2000/svg"
   xmlns:sodipodi="http://sodipodi.sourceforge.net/DTD/sodipodi-0.dtd"
   xmlns:inkscape="http://www.inkscape.org/namespaces/inkscape"
   version="1.1"
   width="310"
   height="340"
   id="svg2"
   inkscape:version="0.48.5 r10040"
   sodipodi:docname="QRCode_WiFi_KACADU1.svg">
  <metadata
     id="metadata52">
    <rdf:RDF>
      <cc:Work
         rdf:about="">
        <dc:format>image/svg+xml</dc:format>
        <dc:type
           rdf:resource="http://purl.org/dc/dcmitype/StillImage" />
      </cc:Work>
    </rdf:RDF>
  </metadata>
  <defs
     id="defs50" />
  <sodipodi:namedview
     pagecolor="#ffffff"
     bordercolor="#666666"
     borderopacity="1"
     objecttolerance="10"
     gridtolerance="10"
     guidetolerance="10"
     inkscape:pageopacity="0"
     inkscape:pageshadow="2"
     inkscape:window-width="1266"
     inkscape:window-height="965"
     id="namedview48"
     showgrid="false"
     fit-margin-bottom="30"
     fit-margin-top="0"
     fit-margin-left="0"
     fit-margin-right="0"
     inkscape:zoom="1.0766271"
     inkscape:cx="-64.381328"
     inkscape:cy="245.86415"
     inkscape:window-x="2"
     inkscape:window-y="427"
     inkscape:window-maximized="0"
     inkscape:current-layer="svg2" />
  <path
     style="fill:#ffffff;stroke:none"
     d="M 0,0 0,310 310,310 310,0 0,0 z"
     id="path4"
     inkscape:connector-curvature="0" />
  <path
     style="fill:#000000;stroke:none"
     d="m 10,10 0,70 70,0 0,-70 -70,0 m 90,0 0,40 -10,0 0,10 10,0 0,10 -10,0 0,20 -20,0 0,10 10,0 0,10 -10,0 0,10 -10,0 0,10 -10,0 0,-20 10,0 0,-10 -10,0 0,-10 -20,0 0,10 -20,0 0,10 10,0 0,10 10,0 0,-10 10,0 0,20 -20,0 0,10 20,0 0,10 -10,0 0,10 10,0 0,20 -10,0 0,30 -10,0 0,10 10,0 0,-10 10,0 0,-10 10,0 0,20 40,0 0,20 10,0 0,20 -10,0 0,20 10,0 0,-10 10,0 0,10 10,0 0,-10 10,0 0,20 -20,0 0,10 30,0 0,-20 10,0 0,20 20,0 0,-10 10,0 0,10 10,0 0,-10 10,0 0,10 10,0 0,-10 -10,0 0,-10 30,0 0,10 10,0 0,-10 -10,0 0,-10 -10,0 0,-10 30,0 0,10 10,0 0,-10 20,0 0,-20 20,0 0,-10 -20,0 0,-10 20,0 0,-20 -20,0 0,-10 20,0 0,-10 -10,0 0,-10 -10,0 0,10 -20,0 0,10 -10,0 0,20 -10,0 0,-40 10,0 0,-10 10,0 0,10 10,0 0,-10 -10,0 0,-10 20,0 0,-10 20,0 0,-10 -10,0 0,-10 -40,0 0,-10 50,0 0,-10 -40,0 0,-10 -10,0 0,10 -10,0 0,-10 -20,0 0,10 -10,0 0,10 -10,0 0,-20 -10,0 0,10 -10,0 0,-30 10,0 0,10 10,0 0,-10 10,0 0,10 10,0 0,-30 -10,0 0,10 -30,0 0,-20 10,0 0,-10 -10,0 0,-20 -10,0 0,10 -10,0 0,-10 -10,0 0,20 20,0 0,20 -10,0 0,10 20,0 0,10 -10,0 0,10 -10,0 0,-10 -10,0 0,-20 -10,0 0,-10 -10,0 0,-10 10,0 0,-10 -20,0 0,-10 -20,0 m 90,0 0,10 10,0 0,-10 -10,0 m 40,0 0,70 70,0 0,-70 -70,0 z"
     id="path6"
     inkscape:connector-curvature="0" />
  <path
     style="fill:#ffffff;stroke:none"
     d="m 20,20 0,50 50,0 0,-50 -50,0 z"
     id="path8"
     inkscape:connector-curvature="0" />
  <path
     style="fill:#000000;stroke:none"
     d="m 210,20 0,10 -10,0 0,10 10,0 0,-10 10,0 0,-10 -10,0 z"
     id="path10"
     inkscape:connector-curvature="0" />
  <path
     style="fill:#ffffff;stroke:none"
     d="m 240,20 0,50 50,0 0,-50 -50,0 z"
     id="path12"
     inkscape:connector-curvature="0" />
  <path
     style="fill:#000000;stroke:none"
     d="m 30,30 0,30 30,0 0,-30 -30,0 z"
     id="path14"
     inkscape:connector-curvature="0" />
  <path
     style="fill:#ffffff;stroke:none"
     d="m 110,30 0,40 -10,0 0,40 -20,0 0,10 -10,0 0,10 -10,0 0,10 -10,0 0,20 20,0 0,10 10,0 0,10 -10,0 0,10 -10,0 0,10 10,0 0,10 20,0 0,-10 10,0 0,10 10,0 0,10 30,0 0,20 10,0 0,10 10,0 0,20 -10,0 0,-10 -10,0 0,10 10,0 0,10 20,0 0,-20 10,0 0,30 10,0 0,-10 10,0 0,-20 -20,0 0,-10 -10,0 0,-20 10,0 0,10 10,0 0,10 20,0 0,-10 -10,0 0,-10 -10,0 0,-10 20,0 0,-10 20,0 0,-20 -20,0 0,20 -20,0 0,-10 10,0 0,-10 -10,0 0,-10 -20,0 0,-20 20,0 0,-10 20,0 0,-10 -20,0 0,-10 20,0 0,-10 -40,0 0,10 -20,0 0,-10 -10,0 0,-10 -20,0 0,20 30,0 0,10 -30,0 0,10 -10,0 0,10 -10,0 0,-10 -10,0 0,10 -20,0 0,-10 10,0 0,-10 20,0 0,-10 -10,0 0,-10 20,0 0,-30 10,0 0,10 10,0 0,-40 10,0 0,-10 -10,0 0,10 -10,0 0,-30 -10,0 z"
     id="path16"
     inkscape:connector-curvature="0" />
  <path
     style="fill:#000000;stroke:none"
     d="m 250,30 0,30 30,0 0,-30 -30,0 m -140,40 0,10 10,0 0,-10 -10,0 z"
     id="path18"
     inkscape:connector-curvature="0" />
  <path
     style="fill:#ffffff;stroke:none"
     d="m 140,70 0,10 10,0 0,10 -10,0 0,10 10,0 0,10 10,0 0,-10 10,0 0,-10 -10,0 0,-10 -10,0 0,-10 -10,0 z"
     id="path20"
     inkscape:connector-curvature="0" />
  <path
     style="fill:#000000;stroke:none"
     d="m 150,90 0,10 10,0 0,-10 -10,0 z"
     id="path22"
     inkscape:connector-curvature="0" />
  <path
     style="fill:#ffffff;stroke:none"
     d="m 40,100 0,10 10,0 0,-10 -10,0 m 180,0 0,20 20,0 0,20 -10,0 0,-10 -10,0 0,20 10,0 0,20 10,0 0,-10 10,0 0,-10 -10,0 0,-10 10,0 0,-20 -10,0 0,-20 -20,0 z"
     id="path24"
     inkscape:connector-curvature="0" />
  <path
     style="fill:#000000;stroke:none"
     d="m 70,130 0,10 10,0 0,-10 -10,0 m 100,0 0,10 -20,0 0,10 30,0 0,-20 -10,0 z"
     id="path26"
     inkscape:connector-curvature="0" />
  <path
     style="fill:#ffffff;stroke:none"
     d="m 270,130 0,10 10,0 0,-10 -10,0 z"
     id="path28"
     inkscape:connector-curvature="0" />
  <path
     style="fill:#000000;stroke:none"
     d="m 10,150 0,20 10,0 0,-20 -10,0 m 110,0 0,10 10,0 0,10 -30,0 0,-10 -10,0 0,20 -10,0 0,10 -10,0 0,10 20,0 0,-10 10,0 0,10 10,0 0,-10 -10,0 0,-10 40,0 0,10 -20,0 0,10 30,0 0,10 -10,0 0,10 10,0 0,-10 10,0 0,20 -10,0 0,10 10,0 0,-10 10,0 0,-10 10,0 0,-20 10,0 0,-10 -20,0 0,-10 -10,0 0,10 10,0 0,20 -10,0 0,-10 -10,0 0,-30 10,0 0,-10 -30,0 0,-10 -10,0 m 170,0 0,10 10,0 0,-10 -10,0 z"
     id="path30"
     inkscape:connector-curvature="0" />
  <path
     style="fill:#ffffff;stroke:none"
     d="m 200,160 0,20 10,0 0,-20 -10,0 m -160,20 0,10 10,0 0,-10 -10,0 z"
     id="path32"
     inkscape:connector-curvature="0" />
  <path
     style="fill:#000000;stroke:none"
     d="m 10,190 0,10 10,0 0,-10 -10,0 z"
     id="path34"
     inkscape:connector-curvature="0" />
  <path
     style="fill:#ffffff;stroke:none"
     d="m 260,200 0,30 10,0 0,10 -10,0 0,10 10,0 0,-10 10,0 0,-10 -10,0 0,-10 10,0 0,-20 -20,0 m -40,20 0,30 30,0 0,-30 -30,0 z"
     id="path36"
     inkscape:connector-curvature="0" />
  <path
     style="fill:#000000;stroke:none"
     d="m 10,230 0,70 70,0 0,-70 -70,0 z"
     id="path38"
     inkscape:connector-curvature="0" />
  <path
     style="fill:#ffffff;stroke:none"
     d="m 110,230 0,30 20,0 0,-30 -20,0 z"
     id="path40"
     inkscape:connector-curvature="0" />
  <path
     style="fill:#000000;stroke:none"
     d="m 230,230 0,10 10,0 0,-10 -10,0 z"
     id="path42"
     inkscape:connector-curvature="0" />
  <path
     style="fill:#ffffff;stroke:none"
     d="m 20,240 0,50 50,0 0,-50 -50,0 z"
     id="path44"
     inkscape:connector-curvature="0" />
  <path
     style="fill:#000000;stroke:none"
     d="m 30,250 0,30 30,0 0,-30 -30,0 m 260,0 0,10 10,0 0,-10 -10,0 m -20,20 0,10 -10,0 0,20 20,0 0,-10 20,0 0,-20 -10,0 0,10 -10,0 0,-10 -10,0 z"
     id="path46"
     inkscape:connector-curvature="0" />
  <text
     xml:space="preserve"
     style="font-size:40px;font-style:normal;font-weight:normal;line-height:125%;letter-spacing:0px;word-spacing:0px;fill:#999999;fill-opacity:1;stroke:none;font-family:Sans"
     x="55.796612"
     y="334.74576"
     id="text3029"
     sodipodi:linespacing="125%"><tspan
       sodipodi:role="line"
       id="tspan3031"
       x="55.796612"
       y="334.74576">KACADU1</tspan></text>
</svg>
