<?xml version="1.0" encoding="UTF-8" standalone="no"?>
<svg
   xmlns:dc="http://purl.org/dc/elements/1.1/"
   xmlns:cc="http://creativecommons.org/ns#"
   xmlns:rdf="http://www.w3.org/1999/02/22-rdf-syntax-ns#"
   xmlns:svg="http://www.w3.org/2000/svg"
   xmlns="http://www.w3.org/2000/svg"
   xmlns:sodipodi="http://sodipodi.sourceforge.net/DTD/sodipodi-0.dtd"
   xmlns:inkscape="http://www.inkscape.org/namespaces/inkscape"
   version="1.1"
   width="270"
   height="300"
   id="svg2"
   inkscape:version="0.48.5 r10040"
   sodipodi:docname="QRCode_URL.svg">
  <metadata
     id="metadata34">
    <rdf:RDF>
      <cc:Work
         rdf:about="">
        <dc:format>image/svg+xml</dc:format>
        <dc:type
           rdf:resource="http://purl.org/dc/dcmitype/StillImage" />
      </cc:Work>
    </rdf:RDF>
  </metadata>
  <defs
     id="defs32" />
  <sodipodi:namedview
     pagecolor="#ffffff"
     bordercolor="#666666"
     borderopacity="1"
     objecttolerance="10"
     gridtolerance="10"
     guidetolerance="10"
     inkscape:pageopacity="0"
     inkscape:pageshadow="2"
     inkscape:window-width="2560"
     inkscape:window-height="1365"
     id="namedview30"
     showgrid="false"
     fit-margin-bottom="30"
     fit-margin-top="0"
     fit-margin-left="0"
     fit-margin-right="0"
     inkscape:zoom="0.87407407"
     inkscape:cx="137.28814"
     inkscape:cy="165"
     inkscape:window-x="0"
     inkscape:window-y="27"
     inkscape:window-maximized="1"
     inkscape:current-layer="svg2" />
  <path
     style="fill:#ffffff;stroke:none"
     d="M 0,0 0,270 270,270 270,0 0,0 z"
     id="path4"
     inkscape:connector-curvature="0" />
  <path
     style="fill:#000000;stroke:none"
     d="m 10,10 0,70 70,0 0,-70 -70,0 m 80,0 0,10 10,0 0,10 10,0 0,10 40,0 0,10 10,0 0,-10 10,0 0,-10 10,0 0,-10 -20,0 0,-10 -20,0 0,20 -10,0 0,-20 -10,0 0,20 -10,0 0,-20 -20,0 m 100,0 0,70 70,0 0,-70 -70,0 z"
     id="path6"
     inkscape:connector-curvature="0" />
  <path
     style="fill:#ffffff;stroke:none"
     d="m 20,20 0,50 50,0 0,-50 -50,0 m 130,0 0,10 10,0 0,-10 -10,0 m 50,0 0,50 50,0 0,-50 -50,0 z"
     id="path8"
     inkscape:connector-curvature="0" />
  <path
     style="fill:#000000;stroke:none"
     d="m 30,30 0,30 30,0 0,-30 -30,0 m 180,0 0,30 30,0 0,-30 -30,0 m -120,10 0,10 10,0 0,20 -10,0 0,10 10,0 0,10 -10,0 0,10 -10,0 0,-10 -30,0 0,20 20,0 0,10 10,0 0,10 -10,0 0,10 10,0 0,10 -30,0 0,-10 -10,0 0,-10 20,0 0,-10 -20,0 0,-10 -10,0 0,10 10,0 0,10 -20,0 0,10 20,0 0,10 -10,0 0,10 -10,0 0,-10 -10,0 0,10 10,0 0,10 -10,0 0,10 10,0 0,-10 10,0 0,-10 10,0 0,-10 10,0 0,10 40,0 0,10 20,0 0,10 -20,0 0,10 20,0 0,-10 10,0 0,-10 -10,0 0,-10 30,0 0,30 10,0 0,10 10,0 0,10 -10,0 0,20 -10,0 0,-20 -10,0 0,10 -10,0 0,-10 -10,0 0,20 -20,0 0,10 20,0 0,10 20,0 0,10 30,0 0,-10 30,0 0,-10 20,0 0,10 -10,0 0,10 20,0 0,-20 10,0 0,10 10,0 0,10 20,0 0,-10 -10,0 0,-10 10,0 0,-10 -10,0 0,-10 10,0 0,-10 -10,0 0,-10 10,0 0,-20 -20,0 0,10 -10,0 0,-10 -10,0 0,-10 10,0 0,-10 10,0 0,10 10,0 0,-10 10,0 0,-30 -10,0 0,-10 10,0 0,-30 -10,0 0,20 -20,0 0,10 10,0 0,20 10,0 0,10 -20,0 0,-20 -20,0 0,-10 10,0 0,-20 10,0 0,-10 -10,0 0,10 -30,0 0,-10 -10,0 0,-30 -10,0 0,30 10,0 0,20 -10,0 0,-10 -10,0 0,20 -10,0 0,10 -10,0 0,-10 -10,0 0,-10 10,0 0,-40 -10,0 0,-10 10,0 0,-10 -20,0 0,10 -10,0 0,-10 -10,0 0,-10 -10,0 m 60,20 0,20 10,0 0,-20 -10,0 z"
     id="path10"
     inkscape:connector-curvature="0" />
  <path
     style="fill:#ffffff;stroke:none"
     d="m 100,70 0,10 10,0 0,20 -20,0 0,10 10,0 0,20 -10,0 0,30 20,0 0,-10 10,0 0,-10 10,0 0,-10 -10,0 0,-10 -10,0 0,-20 10,0 0,10 10,0 0,-10 -10,0 0,-10 10,0 0,-20 -10,0 0,10 -10,0 0,-10 -10,0 z"
     id="path12"
     inkscape:connector-curvature="0" />
  <path
     style="fill:#000000;stroke:none"
     d="m 30,90 0,10 10,0 0,-10 -10,0 m -20,10 0,10 10,0 0,-10 -10,0 z"
     id="path14"
     inkscape:connector-curvature="0" />
  <path
     style="fill:#ffffff;stroke:none"
     d="m 70,100 0,10 10,0 0,-10 -10,0 m 110,10 0,10 -10,0 0,10 10,0 0,10 -10,0 0,10 -10,0 0,-10 -10,0 0,10 -10,0 0,10 30,0 0,10 -10,0 0,10 -10,0 0,10 20,0 0,-20 30,0 0,-10 10,0 0,10 10,0 0,-10 10,0 0,-10 -10,0 0,-10 -10,0 0,-10 -10,0 0,-10 10,0 0,-10 -30,0 z"
     id="path16"
     inkscape:connector-curvature="0" />
  <path
     style="fill:#000000;stroke:none"
     d="m 180,120 0,10 10,0 0,10 10,0 0,10 -30,0 0,10 30,0 0,-10 10,0 0,-10 -10,0 0,-10 -10,0 0,-10 -10,0 m -80,10 0,10 10,0 0,-10 -10,0 m -60,40 0,10 20,0 0,-10 -20,0 m 30,0 0,10 10,0 0,-10 -10,0 z"
     id="path18"
     inkscape:connector-curvature="0" />
  <path
     style="fill:#ffffff;stroke:none"
     d="m 180,180 0,30 30,0 0,-30 -30,0 z"
     id="path20"
     inkscape:connector-curvature="0" />
  <path
     style="fill:#000000;stroke:none"
     d="m 10,190 0,70 70,0 0,-70 -70,0 m 110,0 0,10 10,0 0,-10 -10,0 m 70,0 0,10 10,0 0,-10 -10,0 z"
     id="path22"
     inkscape:connector-curvature="0" />
  <path
     style="fill:#ffffff;stroke:none"
     d="m 220,190 0,40 -10,0 0,-10 -20,0 0,10 -10,0 0,-10 -10,0 0,10 -20,0 0,20 10,0 0,-10 10,0 0,-10 10,0 0,10 10,0 0,-10 20,0 0,10 10,0 0,-10 10,0 0,10 20,0 0,-10 -10,0 0,-30 -10,0 0,-10 -10,0 m -200,10 0,50 50,0 0,-50 -50,0 z"
     id="path24"
     inkscape:connector-curvature="0" />
  <path
     style="fill:#000000;stroke:none"
     d="m 90,200 0,20 10,0 0,-20 -10,0 m -60,10 0,30 30,0 0,-30 -30,0 z"
     id="path26"
     inkscape:connector-curvature="0" />
  <path
     style="fill:#ffffff;stroke:none"
     d="m 120,230 0,10 10,0 0,-10 -10,0 z"
     id="path28"
     inkscape:connector-curvature="0" />
  <text
     xml:space="preserve"
     style="font-size:32px;font-style:normal;font-variant:normal;font-weight:normal;font-stretch:normal;text-align:start;line-height:125%;letter-spacing:0px;word-spacing:0px;writing-mode:lr-tb;text-anchor:start;fill:#000000;fill-opacity:1;stroke:none;font-family:Sans;-inkscape-font-specification:Sans"
     x="13.491524"
     y="291.69492"
     id="text3011"
     sodipodi:linespacing="125%"><tspan
       sodipodi:role="line"
       id="tspan3013"
       x="13.491524"
       y="291.69492"
       style="font-size:32px;font-style:normal;font-variant:normal;font-weight:normal;font-stretch:normal;text-align:start;line-height:125%;writing-mode:lr-tb;text-anchor:start;fill:#999999;font-family:Sans;-inkscape-font-specification:Sans">http://10.0.0.1/</tspan></text>
</svg>
