<?xml version="1.0" standalone="no"?>
<!DOCTYPE svg PUBLIC "-//W3C//DTD SVG 20010904//EN"
 "http://www.w3.org/TR/2001/REC-SVG-20010904/DTD/svg10.dtd">
<svg version="1.0" xmlns="http://www.w3.org/2000/svg"
 width="1240.000000pt" height="1240.000000pt" viewBox="0 0 1240.000000 1240.000000"
 preserveAspectRatio="xMidYMid meet">
<metadata>
Created by potrace 1.11, written by Peter Selinger 2001-2013
</metadata>
<g transform="translate(0.000000,1240.000000) scale(0.100000,-0.100000)"
fill="#000000" stroke="none">
<path d="M5522 12229 c-29 -11 -44 -43 -33 -71 5 -13 31 -45 57 -73 25 -27 99
-106 163 -174 174 -186 176 -188 322 -265 425 -223 789 -422 789 -431 0 -5
-13 -41 -29 -80 -15 -38 -83 -205 -150 -370 -67 -165 -130 -318 -140 -340 -10
-22 -29 -68 -42 -103 -18 -49 -37 -75 -79 -114 -65 -61 -109 -101 -254 -233
-61 -55 -117 -107 -126 -115 -23 -22 -186 -170 -209 -189 -10 -9 -61 -55 -112
-103 -52 -47 -103 -95 -115 -105 -17 -14 -150 -135 -218 -198 -6 -5 -58 -53
-115 -105 -58 -52 -112 -102 -121 -110 -9 -8 -61 -55 -115 -105 -55 -49 -129
-117 -165 -150 -36 -33 -85 -78 -110 -100 -25 -22 -68 -62 -96 -90 -50 -49
-51 -51 -64 -140 -8 -49 -15 -94 -16 -100 -3 -12 -70 -383 -79 -435 -5 -31
-19 -107 -30 -165 -3 -17 -63 -350 -81 -450 -3 -16 -16 -93 -31 -170 -14 -77
-26 -149 -28 -160 -1 -11 -14 -85 -29 -165 -14 -80 -28 -158 -31 -175 -3 -16
-7 -41 -10 -55 -3 -14 -7 -36 -10 -50 -7 -37 -75 -417 -85 -475 -9 -51 -55
-230 -136 -530 -25 -93 -48 -179 -50 -190 -2 -11 -30 -119 -63 -240 -32 -121
-82 -310 -110 -420 -29 -110 -57 -213 -62 -230 -5 -16 -48 -176 -94 -355 -81
-308 -150 -571 -200 -760 -12 -47 -34 -130 -49 -185 -14 -55 -57 -217 -95
-360 -38 -143 -90 -341 -116 -440 -26 -99 -57 -218 -70 -265 -13 -47 -51 -191
-85 -320 -34 -129 -71 -269 -82 -310 -160 -607 -240 -909 -244 -925 -2 -11
-17 -68 -32 -126 -31 -114 -29 -143 10 -158 27 -10 47 -4 68 18 9 9 170 219
360 466 189 248 353 462 364 476 12 14 31 39 43 55 12 16 209 274 439 574 229
300 467 610 528 690 61 80 225 294 364 475 139 182 263 343 275 359 12 16 63
82 112 147 50 64 122 159 161 211 40 51 103 134 141 183 38 50 217 284 398
520 180 237 338 442 349 456 12 14 32 41 46 59 14 19 34 44 45 57 l20 23 548
3 c528 2 549 3 563 22 8 10 14 27 14 38 0 16 -198 318 -397 603 -34 51 -63 96
-63 100 0 5 19 29 41 54 57 62 76 85 224 255 71 83 132 152 135 155 3 3 32 36
65 75 33 38 65 75 70 81 6 6 35 39 65 74 92 107 211 243 241 277 16 18 57 65
91 105 34 40 67 78 73 84 22 24 125 142 169 193 25 30 46 64 47 75 1 25 -3
1433 -5 1801 l-1 261 102 164 c56 91 111 179 121 195 11 17 113 181 226 365
l207 335 67 42 c37 23 70 39 73 35 3 -4 46 -83 94 -177 48 -93 92 -173 99
-177 17 -12 50 -9 69 5 11 8 46 123 103 342 98 372 101 386 82 406 -7 8 -34
43 -60 79 -26 36 -53 73 -60 82 -167 220 -224 308 -323 503 -125 245 -184 357
-195 368 -9 10 -63 14 -316 22 -104 3 -238 8 -299 10 -321 12 -405 15 -565 20
-181 6 -326 13 -395 19 -22 2 -80 6 -130 10 -49 4 -112 9 -140 11 -27 3 -84 7
-125 10 -41 3 -104 7 -140 10 -36 3 -94 7 -130 10 -36 3 -99 8 -140 11 -41 4
-82 7 -90 6 -14 0 -99 26 -470 142 -319 100 -367 113 -388 105z m2198 -455
c118 -3 244 -8 280 -9 36 -1 153 -6 260 -9 368 -13 402 -15 406 -18 2 -2 -9
-17 -24 -33 -15 -17 -149 -172 -297 -345 -149 -173 -281 -327 -295 -342 l-25
-27 -55 15 c-85 22 -794 204 -887 227 -46 11 -83 23 -83 27 0 4 36 59 79 121
44 63 98 141 121 174 22 33 68 99 101 147 l59 87 73 -4 c39 -2 169 -7 287 -11z
m1160 -239 c46 -88 92 -175 102 -193 11 -18 17 -39 14 -48 -3 -8 -69 -98 -146
-199 -117 -153 -145 -183 -163 -180 -12 2 -49 6 -82 9 -33 4 -78 8 -100 11
-22 3 -56 7 -75 9 -129 14 -250 31 -250 35 0 6 40 54 150 181 26 30 109 127
185 215 75 88 159 185 185 215 27 30 58 68 70 83 12 15 23 27 25 25 1 -2 40
-75 85 -163z m-1691 -451 c141 -36 263 -67 271 -69 8 -2 96 -24 195 -50 99
-26 188 -49 199 -51 10 -2 42 -10 71 -19 l52 -15 -13 -72 c-7 -40 -16 -84 -18
-98 -3 -13 -8 -40 -11 -60 -3 -20 -8 -47 -10 -60 -3 -14 -21 -110 -41 -215
-19 -104 -49 -262 -65 -350 -17 -88 -33 -171 -35 -185 -3 -14 -25 -135 -50
-270 -25 -134 -47 -246 -49 -248 -2 -2 -57 37 -122 87 -65 50 -233 180 -373
288 -285 220 -375 289 -538 413 -61 47 -112 88 -112 93 0 4 8 26 19 50 10 23
38 89 61 147 23 58 48 119 55 135 7 17 66 162 131 322 66 161 121 293 123 293
2 0 119 -30 260 -66z m1073 -239 c9 -2 45 -6 80 -10 35 -3 77 -8 93 -10 68
-10 103 -14 170 -20 39 -3 74 -12 80 -19 6 -7 34 -97 63 -199 l54 -185 -55
-89 c-30 -48 -125 -203 -212 -343 -87 -140 -210 -339 -274 -442 -64 -103 -120
-197 -126 -208 -5 -11 -19 -20 -30 -21 -250 -9 -304 -8 -300 3 4 14 70 366 81
432 3 21 8 48 10 60 7 33 33 171 54 286 29 164 31 172 40 215 8 38 14 70 26
140 2 17 11 62 18 100 8 39 25 128 37 198 l23 129 76 -7 c41 -4 83 -9 92 -10z
m-1665 -842 c229 -176 336 -258 613 -471 146 -112 279 -215 295 -229 17 -13
56 -43 88 -66 l58 -42 -6 -125 c-4 -69 -8 -147 -10 -175 -2 -27 -6 -93 -9
-145 -3 -53 -8 -125 -10 -160 -3 -36 -8 -108 -11 -161 -3 -53 -7 -125 -10
-160 -5 -77 -13 -203 -20 -319 -3 -47 -7 -116 -10 -155 -2 -38 -7 -115 -10
-170 -8 -121 -13 -187 -17 -190 -2 -2 -142 53 -313 122 -170 68 -332 132 -360
142 -60 22 -198 77 -240 96 -16 7 -93 38 -170 68 -303 119 -1681 670 -1698
679 -17 9 -17 11 5 31 13 12 91 83 173 157 82 74 156 142 165 150 27 25 201
184 224 203 12 10 39 35 61 56 22 20 121 111 220 201 99 90 185 169 191 174
12 12 167 152 194 176 16 14 172 157 230 210 15 14 66 61 115 105 49 44 93 85
99 92 6 7 14 12 18 13 3 0 69 -48 145 -107z m1530 -1038 c1 -115 4 -539 5
-940 l3 -730 -140 27 c-147 30 -148 30 -260 51 l-70 13 1 65 c0 35 4 116 8
179 8 127 11 170 21 340 4 63 8 131 10 150 2 19 6 94 10 165 3 72 8 141 10
155 2 14 7 81 10 148 4 68 8 143 10 165 2 23 7 96 10 162 4 66 8 134 10 150 2
17 3 47 4 67 l1 37 68 3 c37 2 117 3 177 3 l110 0 2 -210z m-3322 -572 c99
-38 151 -60 177 -74 10 -5 22 -9 28 -9 6 0 29 -9 53 -19 23 -10 83 -35 132
-54 148 -58 1292 -515 1395 -557 52 -21 273 -109 490 -195 217 -87 401 -161
409 -165 11 -6 10 -11 -5 -26 -11 -11 -32 -35 -48 -54 -15 -19 -47 -55 -70
-80 -23 -25 -91 -101 -151 -170 -61 -68 -118 -134 -128 -145 -10 -11 -58 -65
-105 -120 -48 -55 -94 -107 -102 -115 -8 -8 -40 -44 -70 -80 -30 -36 -60 -69
-66 -75 -6 -5 -53 -59 -105 -120 -51 -60 -96 -112 -99 -115 -3 -3 -46 -52 -95
-110 -49 -58 -92 -107 -95 -110 -3 -3 -25 -29 -49 -58 l-44 -53 -61 5 c-33 3
-101 8 -151 11 -49 3 -119 8 -155 10 -36 3 -99 7 -140 10 -109 7 -293 19 -435
30 -38 2 -106 7 -150 10 -44 3 -111 7 -150 10 -38 3 -104 7 -145 10 -119 7
-252 17 -290 20 -19 2 -89 6 -155 10 -66 4 -129 9 -140 10 -11 1 -25 3 -31 4
-9 1 -9 13 -3 41 5 22 12 57 15 78 3 20 7 44 9 52 2 8 7 31 10 50 5 30 48 277
59 335 13 72 17 92 20 110 9 48 66 363 71 395 3 19 10 58 15 85 5 28 12 64 15
80 18 106 77 438 85 475 5 25 11 59 14 75 2 17 13 82 25 145 11 63 23 131 26
150 3 19 10 53 15 75 5 22 12 60 15 85 4 25 12 73 19 107 8 34 11 65 7 69 -9
10 33 -4 134 -43z m3045 -1163 c113 -23 211 -43 219 -46 12 -4 -21 -47 -114
-150 -5 -6 -19 -22 -30 -35 -12 -13 -103 -118 -204 -234 -101 -115 -207 -237
-236 -270 -28 -33 -164 -189 -301 -346 -247 -283 -329 -377 -376 -433 l-24
-28 -194 77 c-107 42 -198 80 -202 84 -4 3 5 20 20 36 15 17 81 93 147 170
106 123 155 180 190 219 6 6 51 58 100 116 50 57 97 111 105 120 8 9 27 30 41
47 28 32 168 190 211 238 15 17 35 39 45 51 96 110 133 152 244 275 42 46 89
99 104 117 15 17 32 32 38 32 7 0 104 -18 217 -40z m-3405 -1335 c55 -3 125
-8 155 -10 30 -3 87 -7 125 -10 132 -9 230 -15 290 -20 33 -3 101 -7 150 -10
50 -3 117 -7 150 -10 33 -2 103 -7 155 -10 52 -3 115 -8 140 -10 48 -4 209
-15 300 -20 123 -8 245 -17 247 -19 1 0 -46 -57 -104 -126 -417 -495 -818
-1002 -998 -1261 -54 -78 -40 -69 -295 -184 -52 -24 -120 -54 -150 -68 -358
-162 -935 -407 -960 -407 -9 0 14 92 192 760 27 102 50 192 52 200 2 8 29 110
59 225 31 116 97 365 147 555 81 307 101 381 116 428 3 10 20 12 66 8 35 -3
108 -8 163 -11z m2053 -222 c105 -42 192 -81 192 -86 0 -4 -6 -14 -12 -21 -7
-7 -38 -41 -68 -76 -30 -35 -62 -71 -70 -80 -64 -68 -272 -315 -345 -411 -49
-64 -173 -226 -275 -359 -102 -133 -213 -279 -248 -323 -72 -94 -53 -69 -387
-507 -141 -184 -267 -348 -280 -365 -13 -16 -80 -104 -149 -195 -70 -91 -132
-172 -139 -180 -7 -8 -45 -59 -86 -113 -41 -53 -75 -97 -76 -97 -3 0 121 335
135 365 5 11 70 182 144 380 211 565 204 549 291 675 124 181 471 637 599 786
14 16 82 99 153 185 192 233 203 246 273 329 36 42 83 97 104 123 22 26 42 47
45 47 4 0 93 -34 199 -77z m-1789 -2060 c-110 -291 -247 -655 -305 -810 l-106
-282 -95 -123 c-52 -68 -105 -136 -117 -153 -13 -16 -55 -71 -92 -120 -158
-208 -282 -370 -322 -420 -11 -14 -123 -161 -517 -675 -191 -250 -345 -446
-342 -435 6 19 115 432 123 465 2 8 11 42 20 75 9 33 17 67 19 75 2 8 24 93
50 188 25 94 48 181 50 191 2 11 11 44 20 73 8 29 54 199 100 378 47 179 103
393 125 475 22 83 67 254 100 380 33 127 64 244 69 260 5 17 33 121 62 232
l54 203 50 16 c27 9 64 22 80 29 17 7 41 16 55 20 56 17 328 134 784 337 182
81 331 147 332 148 1 0 -88 -237 -197 -527z"/>
</g>
</svg>
